<svg width="28" height="28" viewBox="0 0 28 28" fill="white" xmlns="http://www.w3.org/2000/svg">
<path d="M11.2776 13.5678H3.25812C2.92045 13.5678 2.625 13.2726 2.625 12.9352V4.92318C2.625 4.58583 2.92045 4.29065 3.25812 4.29065H11.2776C11.6153 4.29065 11.9107 4.58583 11.9107 4.92318V12.9352C11.9107 13.2726 11.6575 13.5678 11.2776 13.5678ZM3.89123 12.3027H10.6445V5.55571H3.89123V12.3027Z" fill="#fill"/>
<path d="M19.0861 15.2123C18.9172 15.2123 18.7484 15.1702 18.6218 15.0437L12.9659 9.3509C12.7127 9.09789 12.7127 8.71837 12.9659 8.46536L18.664 2.81476C18.9172 2.56175 19.2971 2.56175 19.5504 2.81476L25.2062 8.46536C25.3328 8.59187 25.375 8.76054 25.375 8.92922C25.375 9.09789 25.2906 9.26657 25.2062 9.39307L19.5504 15.0437C19.4237 15.1702 19.2549 15.2123 19.0861 15.2123ZM14.3166 8.92922L19.0861 13.6943L23.8555 8.92922L19.0861 4.12199L14.3166 8.92922Z" fill="#fill"/>
<path d="M11.2776 25.375H3.25812C2.92045 25.375 2.625 25.0798 2.625 24.7425V16.7304C2.625 16.3931 2.92045 16.0979 3.25812 16.0979H11.2776C11.6153 16.0979 11.9107 16.3931 11.9107 16.7304V24.7425C11.9107 25.0798 11.6575 25.375 11.2776 25.375ZM3.89123 24.1099H10.6445V17.363H3.89123V24.1099Z" fill="#fill"/>
<path d="M23.0958 25.375H15.0764C14.7387 25.375 14.4432 25.0798 14.4432 24.7425V16.7304C14.4432 16.3931 14.7387 16.0979 15.0764 16.0979H23.0958C23.4335 16.0979 23.729 16.3931 23.729 16.7304V24.7425C23.729 25.0798 23.4757 25.375 23.0958 25.375ZM15.7095 24.1099H22.4627V17.363H15.7095V24.1099Z" fill="#fill"/>
</svg>
