<svg width="31" height="29" viewBox="0 0 31 29" fill="none" xmlns="http://www.w3.org/2000/svg">
<path d="M22.9005 16.9452L22.6625 17.1124C23.7047 16.3776 24.6958 15.573 25.629 14.704C26.0965 14.2649 26.5272 13.8257 26.921 13.3809L27.0712 13.2109C28.689 11.3437 29.4682 9.63238 29.3379 8.26671C29.3057 7.92235 29.2096 7.58701 29.0545 7.27788C29.0205 7.21271 28.9837 7.14754 28.944 7.08521C28.8728 6.96611 28.7902 6.85415 28.6975 6.75088C27.3786 4.98936 25.7135 3.51598 23.8045 2.42118C21.8956 1.32638 19.783 0.633268 17.5965 0.384376C15.2817 -0.0802908 12.4682 0.293709 9.71137 1.51771L9.6632 1.54038C8.21671 2.16098 6.87186 2.99578 5.67387 4.01671C3.14937 6.09354 1.48053 8.67754 0.939368 11.134C0.776924 11.6365 0.639979 12.1474 0.528535 12.6669C-0.00299829 15.1188 0.0474618 17.6613 0.675868 20.0902C0.675868 20.1469 0.675868 20.2035 0.675868 20.2574C0.667325 20.7016 0.764436 21.1415 0.959202 21.5409C1.05979 21.7394 1.18549 21.9241 1.3332 22.0905C1.50032 22.28 1.69072 22.4475 1.89987 22.5892C1.96787 26.026 8.41654 28.8027 16.3669 28.8027C24.3172 28.8027 30.8339 25.9949 30.8339 22.5325C30.8339 20.0959 27.6067 17.9765 22.9005 16.9452ZM3.63387 22.983C2.86899 22.8424 2.16522 22.4717 1.61653 21.9205C1.37109 21.3117 1.16386 20.6881 0.996035 20.0534C1.05553 19.1212 1.5202 18.0474 2.3277 16.914C2.3872 16.829 2.44953 16.7384 2.51753 16.6505C4.40737 14.1289 7.9207 11.3409 12.3152 9.11671C15.8625 7.30338 19.4665 6.12754 22.518 5.76771L22.8325 5.73371H22.9005C25.6007 5.47588 27.5387 5.90654 28.451 6.95771C28.5332 7.06538 28.6125 7.17588 28.689 7.28638C28.7201 7.33387 28.7485 7.38306 28.774 7.43371C29.471 8.80504 28.774 10.8054 26.7709 13.0749L26.6802 13.1769C26.2779 13.6302 25.8368 14.0798 25.357 14.5255C23.0579 16.6033 20.4838 18.3546 17.707 19.7304C14.001 21.6145 10.3404 22.7564 7.39937 23.0907C6.14781 23.2629 4.87637 23.2265 3.6367 22.983H3.63387ZM15.9447 26.2329C14.307 26.3745 12.9159 25.7739 12.828 24.8899C12.7402 24.0059 14.0124 23.17 15.6614 23.0284C17.3104 22.8867 18.6902 23.4845 18.778 24.3685C18.8659 25.2525 17.5824 26.0884 15.9475 26.2329H15.9447ZM20.3165 22.4334C18.7072 22.5212 17.367 21.8667 17.3189 21.0167C17.2877 20.4047 17.8855 19.8409 18.8035 19.5264C19.2362 19.3797 19.6873 19.2948 20.1437 19.2742C21.7502 19.1864 23.0932 19.8409 23.1414 20.6909C23.1895 21.5409 21.9287 22.3399 20.3165 22.4334ZM26.8899 23.6715C25.2465 23.6715 23.9149 22.9519 23.9149 22.0622C23.9149 21.1725 25.2522 20.45 26.8955 20.45C28.5389 20.45 29.8705 21.1725 29.8705 22.0594C29.8705 22.9462 28.5332 23.663 26.8955 23.663L26.8899 23.6715Z" fill="white"/>
<path d="M12.6865 20.4501C14.2404 20.4501 15.5 19.6496 15.5 18.6622C15.5 17.6748 14.2404 16.8744 12.6865 16.8744C11.1327 16.8744 9.87305 17.6748 9.87305 18.6622C9.87305 19.6496 11.1327 20.4501 12.6865 20.4501Z" fill="white"/>
<path d="M25.6574 6.74808C25.6149 6.6926 25.5898 6.62579 25.5852 6.55606C25.5806 6.48633 25.5968 6.41679 25.6316 6.35621C25.6664 6.29563 25.7184 6.24671 25.781 6.21561C25.8435 6.1845 25.9139 6.17261 25.9833 6.18141C27.2328 6.34291 29.2728 6.99175 28.4738 9.50491C27.3404 13.0437 24.7734 13.5254 24.7734 13.5254C24.7734 13.5254 22.8666 13.5254 25.5781 11.2587C28.4738 8.86175 26.3969 7.70008 25.6574 6.74808Z" fill="white"/>
<path d="M23.0051 14.6502C23.2711 14.6502 23.4868 14.4346 23.4868 14.1686C23.4868 13.9025 23.2711 13.6869 23.0051 13.6869C22.7391 13.6869 22.5234 13.9025 22.5234 14.1686C22.5234 14.4346 22.7391 14.6502 23.0051 14.6502Z" fill="white"/>
</svg>
