<svg width="24" height="24" viewBox="0 0 24 24" fill="none" xmlns="http://www.w3.org/2000/svg">
<path d="M15.3913 2.8564C14.335 2.46454 13.1926 2.25 12 2.25C10.8074 2.24996 9.66493 2.46454 8.6087 2.8564L7.76086 12L8.6087 21.1435C9.66489 21.5355 10.8073 21.75 12 21.75C13.1926 21.75 14.335 21.5355 15.3913 21.1435L16.2391 12L15.3913 2.8564Z" fill="#FFDA44"/>
<path d="M21.75 12C21.75 7.80788 19.1041 4.23401 15.3913 2.85645V21.1436C19.1041 19.7659 21.75 16.1922 21.75 12Z" fill="#D80027"/>
<path d="M2.25 12C2.25 16.1922 4.89591 19.7659 8.60864 21.1436L8.60868 2.85651C4.89591 4.23407 2.25 7.80783 2.25 12H2.25Z" fill="#0052B4"/>
</svg>
