<svg width="172" height="189" viewBox="0 0 172 189" fill="none" xmlns="http://www.w3.org/2000/svg">
<path fill-rule="evenodd" clip-rule="evenodd" d="M86.0202 119.344C86.8493 115.545 90.4892 99.8628 102.663 94.7031C90.5296 89.5434 86.8493 73.8611 86.0202 70.0625C85.1912 73.8611 81.5512 89.5434 69.3778 94.7031C81.5108 99.8628 85.1912 115.545 86.0202 119.344ZM32.5137 188.898V155.543C25.8798 153.062 19.8875 149.111 14.9816 143.985C10.232 139.216 6.46428 133.553 3.89369 127.321C1.3231 121.089 0 114.409 0 107.663C0 100.917 1.3231 94.2376 3.89369 88.0055C6.46428 81.7734 10.232 76.1112 14.9816 71.3422L86 0L157.018 71.3422C161.768 76.1112 165.536 81.7734 168.106 88.0055C170.677 94.2376 172 100.917 172 107.663C172 114.409 170.677 121.089 168.106 127.321C165.536 133.553 161.768 139.216 157.018 143.985C152.132 149.125 146.133 153.067 139.486 155.503V189L32.5137 188.898ZM28.6919 130.232C47.134 148.758 80.2368 127.571 85.3125 152.13C87.1729 161.231 83.0477 170.616 77.5474 173.582C73.503 175.735 68.1443 175.776 62.5833 175.776C58.8221 175.776 56.5168 175.776 51.9265 175.776V180.996H42.5639V161.272H51.8659V166.391H64.1202C71.1775 166.391 76.2531 165.598 76.1116 157.96C76.0105 149.835 70.8338 148.555 63.3316 148.596H52.5332C40.2182 148.596 31.1993 146.077 22.0793 136.915C14.3702 129.17 10.0394 118.667 10.0394 107.714C10.0394 96.7617 14.3702 86.2578 22.0793 78.513L86 14.301L149.941 78.5333C157.65 86.2781 161.981 96.782 161.981 107.734C161.981 118.687 157.65 129.191 149.941 136.936C137.363 149.571 125.23 148.657 108.729 148.596C101.085 148.596 95.7468 150.099 96.0906 158.753C96.4344 166.878 101.793 166.513 109.498 166.472H120.154V161.414H129.456V175.776L99.69 175.512C93.4618 174.435 90.1454 171.571 88.3861 168.463C90.5069 163.004 91.0672 157.059 90.0039 151.298C89.7151 149.847 89.2954 148.426 88.7501 147.052C89.7565 145.328 91.1053 143.831 92.7126 142.653C94.3198 141.475 96.1511 140.642 98.0926 140.206C109.356 137.139 125.857 141.12 134.653 136.57C139.245 134.363 143.242 131.081 146.307 126.998C149.372 122.916 151.416 118.154 152.266 113.112C153.117 108.071 152.749 102.898 151.193 98.029C149.638 93.1602 146.94 88.7382 143.328 85.1353L86.0202 27.5659L28.6919 85.1353C22.7387 91.1196 19.3945 99.2336 19.3945 107.694C19.3945 116.154 22.7387 124.268 28.6919 130.252V130.232ZM86.1213 134.843C76.0105 126.88 62.1384 129.521 50.2077 128.566C44.8894 128.14 39.6318 127.043 35.7088 123.102C31.6338 119.007 29.3446 113.454 29.3446 107.663C29.3446 101.873 31.6338 96.3199 35.7088 92.2248L85.9393 41.7856L136.17 92.2452C138.63 94.7198 140.463 97.7519 141.514 101.086C142.565 104.421 142.803 107.96 142.208 111.406C141.614 114.852 140.204 118.105 138.097 120.889C135.991 123.674 133.249 125.91 130.103 127.408C126.686 129.176 117.586 128.709 113.522 128.688C104.119 128.607 94.0078 128.83 86.1213 134.843Z" fill="url(#paint0_linear_8093_197055)"/>
<defs>
<linearGradient id="paint0_linear_8093_197055" x1="86.0001" y1="394.982" x2="86.0001" y2="-188.695" gradientUnits="userSpaceOnUse">
<stop stop-color="#FBCB00"/>
<stop offset="0.25" stop-color="#FFFAD1"/>
<stop offset="0.43" stop-color="#E5C678"/>
<stop offset="0.59" stop-color="#C8941A"/>
<stop offset="0.73" stop-color="#DEB953"/>
<stop offset="0.87" stop-color="#F1DC8D"/>
<stop offset="1" stop-color="#FFFAD1"/>
</linearGradient>
</defs>
</svg>
