<svg width="20" height="20" viewBox="0 0 20 20" fill="none" xmlns="http://www.w3.org/2000/svg">
<g clip-path="url(#clip0_331_25340)">
<path d="M10.0005 20C15.5233 20 20.0005 15.5229 20.0005 10C20.0005 4.47717 15.5233 1.52588e-05 10.0005 1.52588e-05C4.47764 1.52588e-05 0.000488281 4.47717 0.000488281 10C0.000488281 15.5229 4.47764 20 10.0005 20Z" fill="#F0F0F0"/>
<path d="M2.06742 3.91188C1.28191 4.93387 0.689609 6.1118 0.344727 7.39145H5.54699L2.06742 3.91188Z" fill="#0052B4"/>
<path d="M19.6558 7.39147C19.3109 6.11186 18.7186 4.93393 17.9331 3.91194L14.4536 7.39147H19.6558Z" fill="#0052B4"/>
<path d="M0.344727 12.6088C0.689649 13.8885 1.28195 15.0664 2.06742 16.0883L5.54688 12.6088H0.344727Z" fill="#0052B4"/>
<path d="M16.0884 2.06729C15.0664 1.28179 13.8885 0.689481 12.6089 0.344559V5.54678L16.0884 2.06729Z" fill="#0052B4"/>
<path d="M3.91211 17.9329C4.9341 18.7184 6.11203 19.3107 7.39164 19.6556V14.4534L3.91211 17.9329Z" fill="#0052B4"/>
<path d="M7.3916 0.344559C6.11199 0.689481 4.93406 1.28179 3.91211 2.06725L7.3916 5.54675V0.344559Z" fill="#0052B4"/>
<path d="M12.6089 19.6556C13.8885 19.3107 15.0664 18.7184 16.0884 17.9329L12.6089 14.4534V19.6556Z" fill="#0052B4"/>
<path d="M14.4536 12.6088L17.9331 16.0884C18.7186 15.0664 19.3109 13.8885 19.6558 12.6088H14.4536Z" fill="#0052B4"/>
<path d="M19.9158 8.69568H11.3049H11.3049V0.0846637C10.8779 0.0290778 10.4426 1.52588e-05 10.0005 1.52588e-05C9.55834 1.52588e-05 9.12311 0.0290778 8.69615 0.0846637V8.6956V8.69564H0.0851367C0.0295508 9.12263 0.000488281 9.55794 0.000488281 10C0.000488281 10.4422 0.0295508 10.8774 0.0851367 11.3044H8.69607H8.69611V19.9154C9.12311 19.971 9.55834 20 10.0005 20C10.4426 20 10.8779 19.971 11.3048 19.9154V11.3044V11.3044H19.9158C19.9714 10.8774 20.0005 10.4422 20.0005 10C20.0005 9.55794 19.9714 9.12263 19.9158 8.69568V8.69568Z" fill="#D80027"/>
<path d="M12.6089 12.6088L17.0712 17.0711C17.2765 16.866 17.4722 16.6515 17.659 16.4291L13.8387 12.6087H12.6089V12.6088Z" fill="#D80027"/>
<path d="M7.39158 12.6087H7.3915L2.9292 17.071C3.13436 17.2763 3.34885 17.4721 3.57119 17.6588L7.39158 13.8384V12.6087Z" fill="#D80027"/>
<path d="M7.39146 7.39137V7.39129L2.92912 2.92891C2.72389 3.13407 2.52811 3.34856 2.34131 3.5709L6.16174 7.39133H7.39146V7.39137Z" fill="#D80027"/>
<path d="M12.6089 7.3914L17.0713 2.92898C16.8661 2.72374 16.6516 2.52796 16.4293 2.3412L12.6089 6.16163V7.3914Z" fill="#D80027"/>
</g>
<defs>
<clipPath id="clip0_331_25340">
<rect width="20" height="20" fill="white"/>
</clipPath>
</defs>
</svg>
