<svg width="12" height="11" viewBox="0 0 12 11" fill="none" xmlns="http://www.w3.org/2000/svg">
<rect x="0.5" width="11" height="11" rx="2" fill="#FC4949"/>
<path d="M6.15378 8.5H4.35378C4.17778 8.5 4.08178 8.404 4.08178 8.228V3.172C4.08178 2.996 4.17778 2.9 4.35378 2.9H6.05778C7.28978 2.9 8.00178 3.444 8.00178 4.364C8.00178 4.956 7.70578 5.356 7.11378 5.58C7.84978 5.772 8.23378 6.228 8.23378 6.924C8.23378 7.924 7.47378 8.5 6.15378 8.5ZM5.20978 7.708H6.11378C6.78578 7.708 7.16978 7.396 7.16978 6.844C7.16978 6.308 6.78578 5.988 6.11378 5.988H5.42578L5.57778 5.244H6.02578C6.63378 5.244 6.98578 4.964 6.98578 4.468C6.98578 3.98 6.64178 3.692 6.02578 3.692H5.20978C5.14578 3.692 5.10578 3.732 5.10578 3.796V7.604C5.10578 7.668 5.14578 7.708 5.20978 7.708Z" fill="black"/>
</svg>
