<svg width="60" height="60" viewBox="0 0 60 60" fill="none" xmlns="http://www.w3.org/2000/svg">
<path d="M37.679 0.896712L35.7006 7.51245C31.9262 6.61574 27.9436 6.61574 24.1692 7.51245L22.1388 0.896712C27.2147 -0.298904 32.577 -0.298904 37.6659 0.896712H37.679Z" fill="white"/>
<path d="M51.1497 7.79129C55.0282 11.2187 57.6182 15.3436 58.9588 19.7076L51.5011 21.4811C50.512 18.233 48.5857 15.1842 45.7094 12.6335L51.1627 7.79129H51.1497Z" fill="white"/>
<path d="M14.2125 12.6338C11.3492 15.1845 9.44898 18.2333 8.48585 21.4814L1.01514 19.7079C2.31666 15.3439 4.88065 11.1991 8.73314 7.77164L14.2255 12.6338H14.2125Z" fill="white"/>
<path d="M59.987 26.7221V33.5371C59.974 35.8088 59.6356 38.0805 58.9849 40.2923V33.4773C59.6617 31.2654 59.987 28.9938 59.987 26.7221Z" fill="#9E2E4E"/>
<path d="M58.9588 19.6877L51.488 21.5011C50.5119 18.2331 48.5596 15.2042 45.6833 12.6137L51.1366 7.81128C47.2581 4.36392 42.5987 2.09225 37.6789 0.916565L35.6876 7.53231C31.9262 6.61567 27.9306 6.61567 24.1562 7.53231L22.1388 0.916565C17.2191 2.09225 12.5726 4.36392 8.72014 7.77143L14.1995 12.6336C11.3232 15.2241 9.43598 18.253 8.44683 21.521L0.976109 19.7077C0.312335 22.0192 0.0129858 24.4303 0.0520313 26.8017C0.0520313 26.6821 0.026001 26.5625 0.026001 26.443V27.2998C0.026001 28.2165 0.117107 29.0733 0.260274 29.97C0.442487 31.1457 0.702791 32.3214 1.0542 33.4573L8.52492 31.6838C9.50106 34.9119 11.4273 37.9807 14.3037 40.5313L8.8503 45.3935C12.7288 48.801 17.3883 51.1125 22.334 52.2882L24.3253 45.6725C28.0867 46.5293 32.0564 46.5293 35.8568 45.6725L37.8742 52.2882C42.7939 51.1125 47.4403 48.801 51.2928 45.3935L45.8134 40.5313C48.6637 38.0006 50.59 34.9119 51.5271 31.6838L58.9978 33.4573C59.6746 31.2254 60 29.0135 60 26.702C60 24.3905 59.6486 21.9793 58.9588 19.6678V19.6877ZM43.731 38.7379C36.2082 45.4533 23.9349 45.4134 16.347 38.7379C8.78522 32.0225 8.73316 21.1424 16.2559 14.4669C23.8178 7.7515 36.052 7.7515 43.6399 14.4669C51.2277 21.1424 51.2538 32.0225 43.731 38.7379Z" fill="#CB4D71"/>
<path d="M0 33.2781V26.463C0 28.8144 0.35141 31.1857 1.05423 33.4773V40.2923C0.338395 38.0007 0 35.6294 0 33.2781Z" fill="#9E2E4E"/>
<path d="M58.9978 33.4771V40.2921C57.6833 44.6561 55.1193 48.8009 51.2668 52.2284V45.4134C55.1323 41.9859 57.6963 37.861 58.9978 33.4771Z" fill="#D3D3D3"/>
<path d="M58.9978 33.4773C57.6962 37.8413 55.1323 41.9861 51.2798 45.4136L45.7874 40.5514C48.6507 38.0007 50.5509 34.9519 51.514 31.7038L58.9848 33.4773H58.9978Z" fill="white"/>
<path d="M43.731 38.7378C36.2082 45.4532 23.9349 45.4133 16.3471 38.7378C8.78524 32.0224 8.73317 21.1423 16.256 14.4668C23.8178 7.75139 36.052 7.75139 43.6399 14.4668C51.2277 21.1423 51.2538 32.0224 43.731 38.7378Z" fill="white"/>
<path d="M8.86326 45.4135V52.2285C4.97172 48.8011 2.3817 44.6762 1.04114 40.3122V33.4972C2.3817 37.8612 4.98474 41.9861 8.86326 45.4135Z" fill="#D3D3D3"/>
<path d="M8.51185 31.7038C9.50101 34.9519 11.4273 38.0007 14.3036 40.5514L8.85025 45.4136C4.97172 41.9861 2.3817 37.8612 1.04114 33.4973L8.49884 31.7238L8.51185 31.7038Z" fill="white"/>
<path d="M51.2928 45.4135V52.2285C47.4273 55.656 42.7678 57.9476 37.8481 59.1033V52.2883C42.7808 51.1126 47.4403 48.8409 51.2928 45.4135Z" fill="#9E2E4E"/>
<path d="M22.3341 52.2883V59.1033C17.3884 57.9276 12.7289 55.656 8.8504 52.2285V45.4135C12.7419 48.8409 17.4014 51.1325 22.3341 52.2883Z" fill="#9E2E4E"/>
<path d="M37.8612 52.2882V59.1032C32.7723 60.2989 27.41 60.2989 22.3211 59.1032V52.2882C27.4231 53.4839 32.7853 53.4839 37.8612 52.2882Z" fill="#D3D3D3"/>
<path d="M35.8309 45.6726L37.8612 52.2883C32.7853 53.4839 27.423 53.4839 22.3341 52.2883L24.3124 45.6726C28.0868 46.5693 32.0695 46.5693 35.8439 45.6726H35.8309Z" fill="white"/>
<path d="M29.9391 32.801C27.6511 32.801 26.1311 31.569 26.0031 29.553H28.0191C28.1151 30.513 28.8511 31.121 29.9071 31.121C31.1551 31.121 31.9231 30.273 31.9231 28.945C31.9231 27.553 31.0911 26.673 29.7471 26.673C28.8991 26.673 28.1951 27.025 27.7471 27.649H26.2911L26.7711 21.953C26.8031 21.601 26.9791 21.425 27.3311 21.425H33.3951L33.0751 23.041H28.5471C28.4191 23.041 28.3391 23.105 28.3231 23.249L28.0351 26.049H28.0831C28.6431 25.441 29.5551 25.121 30.5791 25.121C32.6911 25.121 34.0351 26.593 34.0351 28.897C34.0351 31.313 32.4671 32.801 29.9391 32.801Z" fill="#0C0C0C"/>
</svg>
